<mxfile host="app.diagrams.net" agent="Mozilla/5.0 (Windows NT 10.0; Win64; x64) AppleWebKit/537.36 (KHTML, like Gecko) Chrome/129.0.0.0 Safari/537.36" version="24.7.17">
  <diagram name="Página-1" id="636E7nQdL_qJ9YShG2Cq">
    <mxGraphModel dx="2269" dy="1297" grid="1" gridSize="10" guides="1" tooltips="1" connect="1" arrows="1" fold="1" page="1" pageScale="1" pageWidth="827" pageHeight="1169" math="0" shadow="0">
      <root>
        <mxCell id="0" />
        <mxCell id="1" parent="0" />
        <mxCell id="lryKtaGGrzevul9Tg3Kf-1" value="Paciente&amp;nbsp;&lt;div&gt;Adulto&lt;/div&gt;" style="shape=umlActor;verticalLabelPosition=bottom;verticalAlign=top;html=1;outlineConnect=0;" vertex="1" parent="1">
          <mxGeometry x="40" y="310" width="30" height="60" as="geometry" />
        </mxCell>
        <mxCell id="lryKtaGGrzevul9Tg3Kf-2" value="logar" style="ellipse;whiteSpace=wrap;html=1;" vertex="1" parent="1">
          <mxGeometry x="130" y="110" width="120" height="70" as="geometry" />
        </mxCell>
        <mxCell id="lryKtaGGrzevul9Tg3Kf-3" value="marcar consulta" style="ellipse;whiteSpace=wrap;html=1;" vertex="1" parent="1">
          <mxGeometry x="130" y="190" width="120" height="70" as="geometry" />
        </mxCell>
        <mxCell id="lryKtaGGrzevul9Tg3Kf-4" value="apagar consulta" style="ellipse;whiteSpace=wrap;html=1;" vertex="1" parent="1">
          <mxGeometry x="130" y="270" width="120" height="70" as="geometry" />
        </mxCell>
        <mxCell id="lryKtaGGrzevul9Tg3Kf-5" value="apagar usuário" style="ellipse;whiteSpace=wrap;html=1;" vertex="1" parent="1">
          <mxGeometry x="130" y="350" width="120" height="70" as="geometry" />
        </mxCell>
        <mxCell id="lryKtaGGrzevul9Tg3Kf-6" value="adicionar um dependente" style="ellipse;whiteSpace=wrap;html=1;" vertex="1" parent="1">
          <mxGeometry x="130" y="440" width="120" height="80" as="geometry" />
        </mxCell>
        <mxCell id="lryKtaGGrzevul9Tg3Kf-8" value="Médico" style="shape=umlActor;verticalLabelPosition=bottom;verticalAlign=top;html=1;outlineConnect=0;" vertex="1" parent="1">
          <mxGeometry x="51" y="930" width="30" height="60" as="geometry" />
        </mxCell>
        <mxCell id="lryKtaGGrzevul9Tg3Kf-10" value="anexar laudo" style="ellipse;whiteSpace=wrap;html=1;" vertex="1" parent="1">
          <mxGeometry x="130" y="870" width="120" height="80" as="geometry" />
        </mxCell>
        <mxCell id="lryKtaGGrzevul9Tg3Kf-11" value="anexar atestado" style="ellipse;whiteSpace=wrap;html=1;" vertex="1" parent="1">
          <mxGeometry x="130" y="960" width="120" height="80" as="geometry" />
        </mxCell>
        <mxCell id="lryKtaGGrzevul9Tg3Kf-12" value="anexar exames" style="ellipse;whiteSpace=wrap;html=1;" vertex="1" parent="1">
          <mxGeometry x="130" y="1050" width="120" height="80" as="geometry" />
        </mxCell>
        <mxCell id="lryKtaGGrzevul9Tg3Kf-13" value="logar" style="ellipse;whiteSpace=wrap;html=1;" vertex="1" parent="1">
          <mxGeometry x="130" y="770" width="120" height="80" as="geometry" />
        </mxCell>
        <mxCell id="lryKtaGGrzevul9Tg3Kf-14" value="anexar exames" style="ellipse;whiteSpace=wrap;html=1;" vertex="1" parent="1">
          <mxGeometry x="130" y="540" width="120" height="80" as="geometry" />
        </mxCell>
        <mxCell id="lryKtaGGrzevul9Tg3Kf-16" value="Actor" style="shape=umlActor;verticalLabelPosition=bottom;verticalAlign=top;html=1;outlineConnect=0;" vertex="1" parent="1">
          <mxGeometry x="490" y="470" width="30" height="60" as="geometry" />
        </mxCell>
        <mxCell id="lryKtaGGrzevul9Tg3Kf-17" value="logar" style="ellipse;whiteSpace=wrap;html=1;" vertex="1" parent="1">
          <mxGeometry x="590" y="185" width="120" height="80" as="geometry" />
        </mxCell>
        <mxCell id="lryKtaGGrzevul9Tg3Kf-18" value="apagar contas" style="ellipse;whiteSpace=wrap;html=1;" vertex="1" parent="1">
          <mxGeometry x="590" y="290" width="120" height="80" as="geometry" />
        </mxCell>
        <mxCell id="lryKtaGGrzevul9Tg3Kf-19" value="editar dados&amp;nbsp;" style="ellipse;whiteSpace=wrap;html=1;" vertex="1" parent="1">
          <mxGeometry x="590" y="400" width="120" height="80" as="geometry" />
        </mxCell>
        <mxCell id="lryKtaGGrzevul9Tg3Kf-20" value="agendar consultas" style="ellipse;whiteSpace=wrap;html=1;" vertex="1" parent="1">
          <mxGeometry x="590" y="510" width="120" height="80" as="geometry" />
        </mxCell>
        <mxCell id="lryKtaGGrzevul9Tg3Kf-21" value="anexar laudo" style="ellipse;whiteSpace=wrap;html=1;" vertex="1" parent="1">
          <mxGeometry x="590" y="620" width="120" height="80" as="geometry" />
        </mxCell>
        <mxCell id="lryKtaGGrzevul9Tg3Kf-22" value="anexar atestados" style="ellipse;whiteSpace=wrap;html=1;" vertex="1" parent="1">
          <mxGeometry x="590" y="740" width="120" height="80" as="geometry" />
        </mxCell>
        <mxCell id="lryKtaGGrzevul9Tg3Kf-23" value="Paciente&lt;div&gt;&amp;nbsp;Menor&lt;/div&gt;" style="shape=umlActor;verticalLabelPosition=bottom;verticalAlign=top;html=1;outlineConnect=0;" vertex="1" parent="1">
          <mxGeometry x="490" y="990" width="30" height="60" as="geometry" />
        </mxCell>
        <mxCell id="lryKtaGGrzevul9Tg3Kf-24" value="visualizar&amp;nbsp;" style="ellipse;whiteSpace=wrap;html=1;" vertex="1" parent="1">
          <mxGeometry x="590" y="980" width="120" height="80" as="geometry" />
        </mxCell>
      </root>
    </mxGraphModel>
  </diagram>
</mxfile>
